<?xml version="1.0" standalone="no"?>
<!DOCTYPE svg PUBLIC "-//W3C//DTD SVG 20010904//EN"
 "http://www.w3.org/TR/2001/REC-SVG-20010904/DTD/svg10.dtd">
<svg version="1.0" xmlns="http://www.w3.org/2000/svg"
 width="300.000000pt" height="259.000000pt" viewBox="0 0 300.000000 259.000000"
 preserveAspectRatio="xMidYMid meet">
<metadata>
Created by potrace 1.10, written by Peter Selinger 2001-2011
</metadata>
<g transform="translate(0.000000,259.000000) scale(0.100000,-0.100000)"
fill="#000000" stroke="none">
<path d="M1428 2450 c-10 -24 -65 -332 -88 -490 -54 -379 -50 -600 15 -875 48
-204 80 -381 101 -560 16 -138 20 -154 50 -203 19 -28 37 -52 40 -52 3 0 -1
11 -10 25 -9 14 -22 35 -30 48 -8 12 -12 34 -9 49 6 31 13 34 31 16 23 -23 12
0 -14 30 -17 19 -28 44 -30 69 -1 21 -6 64 -9 95 -13 106 23 242 86 321 l30
37 -25 94 c-14 51 -46 150 -71 219 -82 232 -85 272 -56 727 9 151 1 480 -11
450z m-22 -418 c-10 -50 -20 -276 -19 -402 2 -144 13 -193 98 -440 74 -216 76
-232 36 -295 -17 -27 -31 -52 -31 -56 0 -4 -5 -20 -11 -36 -13 -35 -21 -23
-38 62 -13 60 -53 234 -71 310 -38 154 -40 455 -6 688 24 169 31 205 39 200 4
-3 6 -17 3 -31z"/>
<path d="M2469 2142 c-103 -108 -140 -171 -234 -395 -37 -88 -40 -117 -7 -81
21 24 33 49 72 149 31 82 59 138 60 120 0 -6 -23 -73 -51 -150 -60 -165 -65
-185 -50 -185 15 0 48 75 86 190 39 119 103 253 164 343 65 97 46 101 -40 9z"/>
<path d="M542 1739 c-100 -19 -413 -181 -392 -202 3 -3 91 24 195 59 105 35
204 64 221 64 149 0 403 -188 473 -352 10 -25 40 -127 65 -227 26 -99 49 -188
53 -197 5 -14 2 -14 -23 2 -21 14 -47 19 -99 19 -63 0 -78 -4 -123 -32 -45
-28 -56 -31 -84 -22 -53 15 -110 11 -146 -11 -57 -35 -170 -159 -199 -218 -33
-67 -36 -133 -10 -227 9 -33 17 -90 17 -127 0 -38 4 -68 9 -68 27 0 63 169 54
251 -3 24 0 63 6 85 12 45 93 159 138 193 63 49 149 101 167 101 18 0 18 -2
-4 -25 -13 -14 -41 -30 -61 -35 -44 -12 -118 -89 -155 -162 -26 -51 -19 -67 8
-20 25 43 148 172 163 172 20 0 246 -240 325 -345 69 -92 137 -158 238 -229
28 -21 52 -42 52 -47 0 -5 51 -9 113 -9 l113 0 18 88 c10 48 38 157 62 242 24
85 44 166 43 180 0 23 -1 22 -19 -11 -29 -56 -60 -153 -91 -294 -41 -184 -40
-181 -94 -177 -25 2 -51 -1 -59 -7 -10 -9 -30 19 -93 132 -126 223 -173 318
-173 352 0 33 -16 61 -64 114 -38 42 -17 36 62 -17 48 -33 64 -53 100 -119 24
-47 42 -94 42 -113 0 -38 26 -96 46 -104 17 -7 17 -5 -1 41 -8 21 -44 142 -80
268 -164 569 -217 689 -369 833 -119 113 -235 182 -341 201 -32 6 -59 11 -59
10 -1 -1 -20 -5 -44 -10z m175 -61 c78 -29 178 -100 268 -192 116 -117 153
-198 285 -611 23 -71 44 -136 47 -143 3 -7 -16 9 -41 35 -45 46 -56 50 -36 12
6 -10 8 -19 5 -19 -5 0 -14 8 -73 56 -14 12 -22 26 -18 32 11 18 34 14 46 -8
6 -11 16 -20 22 -20 6 0 2 11 -11 24 -15 16 -29 56 -46 137 -32 153 -79 309
-115 378 -27 52 -93 130 -150 176 -77 62 -109 85 -119 85 -6 0 -11 4 -11 8 0
11 -93 53 -132 59 -17 2 -40 8 -52 13 -43 18 80 -3 131 -22z m341 -802 c15 -8
41 -31 58 -52 35 -44 104 -160 104 -175 0 -27 138 -369 149 -369 4 0 7 -8 7
-17 1 -10 5 -27 9 -38 6 -12 -15 0 -51 32 -80 70 -122 115 -187 203 -30 41
-97 118 -148 170 -50 52 -91 100 -90 106 1 7 -5 14 -14 18 -8 3 -15 10 -15 16
0 16 30 12 36 -5 4 -8 16 -15 29 -15 27 0 78 -42 207 -172 132 -133 151 -128
38 10 -48 59 -202 189 -256 215 -24 11 -44 23 -44 26 0 12 96 60 118 61 13 0
35 -6 50 -14z m-278 -60 c0 -3 -24 -17 -52 -31 -55 -27 -84 -56 -148 -140 -51
-67 -64 -113 -57 -197 3 -37 4 -68 2 -68 -2 0 -14 31 -26 69 l-22 69 27 64
c30 71 137 195 191 223 28 14 85 21 85 11z"/>
<path d="M1957 1730 c-50 -15 -95 -58 -124 -117 l-28 -58 -3 -257 -3 -258 -27
0 c-32 0 -141 -50 -160 -73 -8 -9 -11 -21 -7 -26 3 -6 0 -21 -6 -33 -14 -26
-16 -46 -24 -278 -3 -91 -2 -201 3 -245 l9 -80 2 90 c1 86 2 89 16 61 16 -31
19 -81 8 -166 -7 -53 -8 -54 -14 -20 -5 30 -7 27 -8 -21 -1 -37 4 -60 13 -68
11 -9 14 0 20 50 10 98 7 455 -5 551 -12 104 -6 122 72 192 51 46 102 62 111
34 2 -6 -15 -59 -39 -117 -48 -115 -86 -240 -103 -340 -14 -79 1 -104 20 -34
31 119 59 214 67 225 5 9 10 3 14 -17 5 -20 7 -7 7 40 -1 57 4 81 27 130 16
32 28 72 28 87 0 19 5 28 16 28 18 0 269 -74 276 -82 6 -5 -24 -73 -126 -289
-38 -81 -69 -149 -69 -153 0 -7 37 -2 45 6 4 3 8 12 9 20 8 45 80 168 112 193
35 27 38 27 50 10 8 -10 16 -17 18 -14 14 14 50 115 71 203 14 55 37 125 51
154 39 80 124 166 223 224 124 73 207 133 284 207 79 75 91 111 20 57 -109
-83 -284 -195 -373 -238 -148 -73 -204 -131 -266 -278 -15 -36 -31 -69 -34
-73 -4 -5 -50 13 -101 39 -78 39 -104 48 -151 48 -36 1 -53 5 -48 11 5 6 24
38 43 72 l35 61 1 144 c2 152 16 307 31 322 14 14 115 -10 184 -44 68 -34 182
-131 227 -194 44 -60 34 -18 -12 54 -54 84 -128 160 -209 216 -71 48 -121 61
-173 44z m-82 -237 c-2 -60 -5 -159 -6 -221 -1 -100 -11 -147 -24 -110 -8 25
-11 270 -3 334 6 58 21 104 33 104 3 0 3 -48 0 -107z m385 -392 c-35 -60 -69
-167 -95 -304 -6 -28 -14 -36 -65 -62 l-49 -25 38 73 c22 39 42 83 46 97 8 31
96 213 105 220 4 3 12 15 19 28 6 12 16 22 21 22 5 0 -4 -22 -20 -49z"/>
<path d="M2057 1432 c-102 -160 -142 -232 -130 -232 15 0 31 15 49 47 54 91
107 173 113 173 3 0 12 14 19 30 8 17 19 36 26 43 20 21 34 63 26 76 -4 8 -41
-40 -103 -137z"/>
<path d="M2199 1527 c-36 -27 -236 -383 -253 -450 -15 -61 13 -26 77 95 38 73
98 182 134 241 62 104 75 138 42 114z"/>
<path d="M2705 1198 c-66 -61 -205 -188 -310 -283 -217 -197 -235 -215 -213
-215 8 0 27 9 42 21 14 11 31 17 37 13 7 -4 9 -3 6 3 -7 12 40 60 49 50 3 -3
-20 -32 -51 -64 -134 -136 -249 -299 -310 -439 -42 -96 -61 -124 -86 -124 -16
0 -19 4 -14 23 5 19 4 20 -5 5 -6 -10 -20 -18 -32 -18 -20 0 -20 3 -13 112 3
62 10 149 16 193 5 44 9 106 9 139 0 67 17 126 37 126 10 0 13 -27 13 -112 1
-75 5 -121 14 -137 13 -23 14 -21 20 33 4 32 6 147 4 256 -3 180 -4 197 -19
184 -16 -14 -22 -47 -7 -38 13 8 11 1 -40 -134 -52 -136 -57 -166 -86 -520
l-12 -142 87 0 86 0 18 47 c34 92 125 259 184 337 32 43 171 192 308 330 223
226 299 309 388 429 51 69 3 39 -120 -75z"/>
</g>
</svg>
